#N canvas 0 22 158 150 10;
#X obj 6 5 notein;
#X obj 6 56 tgl 15 0 empty empty empty 17 7 0 10 -262144 -1 -1 0 1
;
#X obj 21 56 tgl 15 0 empty empty empty 17 7 0 10 -262144 -1 -1 0 1
;
#X obj 36 56 tgl 15 0 empty empty empty 17 7 0 10 -262144 -1 -1 0 1
;
#X obj 6 71 tgl 15 0 empty empty empty 17 7 0 10 -262144 -1 -1 0 1
;
#X obj 21 71 tgl 15 0 empty empty empty 17 7 0 10 -262144 -1 -1 0 1
;
#X obj 36 71 tgl 15 0 empty empty empty 17 7 0 10 -262144 -1 -1 0 1
;
#X obj 6 92 dac~ 3;
#X obj 46 92 dac~ 4;
#X obj 86 92 dac~ 5;
#X obj 6 109 dac~ 6;
#X obj 46 109 dac~ 7;
#X obj 86 109 dac~ 8;
#X obj 6 31 sel 44 45 46 36 37 38;
#X connect 0 0 13 0;
#X connect 1 0 7 0;
#X connect 2 0 8 0;
#X connect 3 0 9 0;
#X connect 4 0 10 0;
#X connect 5 0 11 0;
#X connect 6 0 12 0;
#X connect 13 0 1 0;
#X connect 13 1 2 0;
#X connect 13 2 3 0;
#X connect 13 3 4 0;
#X connect 13 4 5 0;
#X connect 13 5 6 0;
